<svg width="32" height="32" viewBox="0 0 32 32" fill="none" xmlns="http://www.w3.org/2000/svg">
<circle cx="16" cy="16" r="16" fill="#F00000"/>
<path d="M7.03308 20.4265C8.02785 22.4417 9.6724 24.063 11.7015 25.029C13.7306 25.995 16.0259 26.2494 18.2172 25.7511C20.4086 25.2528 22.3682 24.0309 23.7801 22.2825C25.192 20.5341 25.9738 18.3611 25.9994 16.1139C26.025 13.8668 25.2929 11.6765 23.9212 9.89636C22.5495 8.11623 20.6183 6.85002 18.4388 6.30195C16.2594 5.75388 13.9589 5.95589 11.9083 6.87542C9.85773 7.79495 8.17667 9.37838 7.13625 11.3703L9.98106 12.8562C10.6876 11.5036 11.8291 10.4284 13.2215 9.80394C14.614 9.17954 16.1761 9.04236 17.6561 9.41453C19.136 9.7867 20.4475 10.6465 21.3789 11.8553C22.3103 13.0641 22.8075 14.5514 22.7901 16.0774C22.7727 17.6033 22.2418 19.0789 21.2831 20.2661C20.3244 21.4534 18.9937 22.2831 17.5056 22.6215C16.0176 22.9598 14.4589 22.7871 13.0811 22.1312C11.7032 21.4752 10.5865 20.3742 9.911 19.0059L7.03308 20.4265Z" fill="black"/>
<path d="M6.027 17.2854L5.2966 10.1397L12.0182 13.323L6.027 17.2854Z" fill="black"/>
</svg>
